# xmcd
# 
# Track frame offsets:
#     180
#     21402
#     41662
#     59267
#     80807
#     100005
#     117482
#     137735
#     155195
#     174092
#     186470
#     204325
#     222575
#     235515
# 
# Disc length: 3377
# 
# Revision: 5
# Processed by: cddbd v1.5.2PL0 Copyright (c) Steve Scherf et al.
# Submitted via: fre:ac v1.0.31
# 
DISCID=c90d2f0e
DTITLE=LOL_&_LE_GROUPE - Lol_Et_Le_Groupe
DYEAR=1995
DGENRE=
TTITLE0=Scare Me
TTITLE1=Who Do We Want To Be ?
TTITLE2=Come On, Move
TTITLE3=Aint That A Bitch ?
TTITLE4=Reach Out
TTITLE5=I Feel Alright
TTITLE6=Strong Enough For Me
TTITLE7=I Picked A Flower For You
TTITLE8=Soul
TTITLE9=Knock On Wood
TTITLE10=What Where We Supposed To Do ?
TTITLE11=Since You Ride Up There
TTITLE12=Birthday
TTITLE13=Land Of 1000 Dances
EXTD=
EXTT0=
EXTT1=
EXTT2=
EXTT3=
EXTT4=
EXTT5=
EXTT6=
EXTT7=
EXTT8=
EXTT9=
EXTT10=
EXTT11=
EXTT12=
EXTT13=
PLAYORDER=
